# xmcd
#
# Track frame offsets:
#	150
#	22856
#	57704
#	80383
#	105194
#	127106
#	151134
#	166261
#	183070
#	201485
#	218241
#	243561
#	260392
#	283549
#	307799
#	325904
#	344038
#
# Disc length: 4812 seconds
#
# Revision: 1
# Processed by: cddbd v1.5.1PL2 Copyright (c) Steve Scherf et al.
# Submitted via: audiograbber 1.83.01
#
DISCID=eb12ca11
DTITLE=Peter Green - Music History [CD 2)
DYEAR=1900
DGENRE=Blues
TTITLE0=Slabo Day
TTITLE1=A Fool No More
TTITLE2=Woman Don't
TTITLE3=Last Train To San Antone
TTITLE4=Strangers Blues
TTITLE5=Blowing All My Troubles Away
TTITLE6=Bullet In The Sky
TTITLE7=Homework
TTITLE8=Travelling Riverside Blues
TTITLE9=Corner Of My Mind
TTITLE10=Give Me Back My Freedom
TTITLE11=Touch My Spirit
TTITLE12=It Takes Time
TTITLE13=Lost My Love
TTITLE14=Dark End Of The Street
TTITLE15=A Fool No More (2)
TTITLE16=Long Way From Home
EXTD=Bootleg compilation
EXTT0=
EXTT1=
EXTT2=
EXTT3=
EXTT4=
EXTT5=
EXTT6=
EXTT7=
EXTT8=
EXTT9=
EXTT10=
EXTT11=
EXTT12=
EXTT13=
EXTT14=
EXTT15=
EXTT16=
PLAYORDER=
